<svg width="510" height="403" viewBox="0 0 610 403" fill="none" xmlns="http://www.w3.org/2000/svg">
<path d="M494.322 397.051V383.96H495.908V395.645H501.993V397.051H494.322ZM504.243 397.051V387.233H505.751V397.051H504.243ZM505.01 385.597C504.716 385.597 504.462 385.497 504.249 385.296C504.04 385.096 503.936 384.855 503.936 384.574C503.936 384.293 504.04 384.052 504.249 383.852C504.462 383.651 504.716 383.551 505.01 383.551C505.304 383.551 505.555 383.651 505.764 383.852C505.977 384.052 506.084 384.293 506.084 384.574C506.084 384.855 505.977 385.096 505.764 385.296C505.555 385.497 505.304 385.597 505.01 385.597ZM515.213 400.733V395.543H515.085C514.975 395.722 514.817 395.948 514.612 396.22C514.408 396.489 514.116 396.73 513.737 396.943C513.357 397.151 512.852 397.256 512.222 397.256C511.404 397.256 510.681 397.049 510.055 396.636C509.428 396.218 508.938 395.63 508.585 394.872C508.231 394.109 508.054 393.208 508.054 392.168C508.054 391.136 508.231 390.242 508.585 389.483C508.938 388.725 509.431 388.139 510.061 387.725C510.692 387.312 511.421 387.105 512.247 387.105C512.887 387.105 513.392 387.212 513.762 387.425C514.137 387.634 514.423 387.872 514.619 388.141C514.819 388.405 514.975 388.622 515.085 388.793H515.264V387.233H516.722V400.733H515.213ZM512.426 395.901C513.031 395.901 513.543 395.743 513.96 395.428C514.378 395.108 514.695 394.667 514.913 394.105C515.13 393.538 515.239 392.884 515.239 392.142C515.239 391.409 515.132 390.768 514.919 390.218C514.706 389.664 514.391 389.234 513.973 388.927C513.556 388.616 513.04 388.46 512.426 388.46C511.787 388.46 511.254 388.624 510.828 388.953C510.406 389.276 510.089 389.717 509.876 390.276C509.667 390.83 509.563 391.452 509.563 392.142C509.563 392.841 509.669 393.476 509.882 394.047C510.1 394.614 510.419 395.065 510.841 395.402C511.267 395.735 511.796 395.901 512.426 395.901ZM525.671 393.037V387.233H527.179V397.051H525.671V395.389H525.568C525.338 395.888 524.98 396.312 524.495 396.661C524.009 397.007 523.395 397.179 522.654 397.179C522.04 397.179 521.495 397.045 521.017 396.776C520.54 396.504 520.165 396.095 519.892 395.549C519.62 394.999 519.483 394.307 519.483 393.472V387.233H520.992V393.369C520.992 394.085 521.192 394.656 521.593 395.083C521.997 395.509 522.513 395.722 523.139 395.722C523.514 395.722 523.896 395.626 524.284 395.434C524.676 395.242 525.004 394.948 525.268 394.552C525.536 394.156 525.671 393.651 525.671 393.037ZM529.942 397.051V387.233H531.451V397.051H529.942ZM530.709 385.597C530.415 385.597 530.162 385.497 529.949 385.296C529.74 385.096 529.635 384.855 529.635 384.574C529.635 384.293 529.74 384.052 529.949 383.852C530.162 383.651 530.415 383.551 530.709 383.551C531.003 383.551 531.255 383.651 531.463 383.852C531.676 384.052 531.783 384.293 531.783 384.574C531.783 384.855 531.676 385.096 531.463 385.296C531.255 385.497 531.003 385.597 530.709 385.597ZM537.921 397.256C537.103 397.256 536.381 397.049 535.754 396.636C535.128 396.218 534.638 395.63 534.284 394.872C533.93 394.109 533.753 393.208 533.753 392.168C533.753 391.136 533.93 390.242 534.284 389.483C534.638 388.725 535.13 388.139 535.76 387.725C536.391 387.312 537.12 387.105 537.947 387.105C538.586 387.105 539.091 387.212 539.461 387.425C539.836 387.634 540.122 387.872 540.318 388.141C540.518 388.405 540.674 388.622 540.785 388.793H540.912V383.96H542.421V397.051H540.964V395.543H540.785C540.674 395.722 540.516 395.948 540.312 396.22C540.107 396.489 539.815 396.73 539.436 396.943C539.057 397.151 538.552 397.256 537.921 397.256ZM538.126 395.901C538.731 395.901 539.242 395.743 539.66 395.428C540.077 395.108 540.395 394.667 540.612 394.105C540.829 393.538 540.938 392.884 540.938 392.142C540.938 391.409 540.832 390.768 540.618 390.218C540.405 389.664 540.09 389.234 539.672 388.927C539.255 388.616 538.739 388.46 538.126 388.46C537.486 388.46 536.954 388.624 536.528 388.953C536.106 389.276 535.788 389.717 535.575 390.276C535.366 390.83 535.262 391.452 535.262 392.142C535.262 392.841 535.368 393.476 535.582 394.047C535.799 394.614 536.118 395.065 536.54 395.402C536.966 395.735 537.495 395.901 538.126 395.901ZM545.393 397.051V387.233H546.902V397.051H545.393ZM546.16 385.597C545.866 385.597 545.613 385.497 545.4 385.296C545.191 385.096 545.086 384.855 545.086 384.574C545.086 384.293 545.191 384.052 545.4 383.852C545.613 383.651 545.866 383.551 546.16 383.551C546.454 383.551 546.706 383.651 546.915 383.852C547.128 384.052 547.234 384.293 547.234 384.574C547.234 384.855 547.128 385.096 546.915 385.296C546.706 385.497 546.454 385.597 546.16 385.597ZM553.935 387.233V388.511H548.847V387.233H553.935ZM550.33 384.881H551.838V394.239C551.838 394.665 551.9 394.985 552.023 395.198C552.151 395.406 552.313 395.547 552.509 395.619C552.71 395.688 552.92 395.722 553.142 395.722C553.308 395.722 553.445 395.713 553.551 395.696C553.658 395.675 553.743 395.658 553.807 395.645L554.114 397C554.011 397.038 553.869 397.077 553.685 397.115C553.502 397.158 553.27 397.179 552.989 397.179C552.563 397.179 552.145 397.087 551.736 396.904C551.331 396.721 550.994 396.442 550.726 396.067C550.462 395.692 550.33 395.219 550.33 394.648V384.881ZM557.175 400.733C556.92 400.733 556.692 400.712 556.491 400.669C556.291 400.631 556.153 400.592 556.076 400.554L556.46 399.225C556.826 399.318 557.15 399.352 557.431 399.327C557.712 399.301 557.962 399.176 558.179 398.95C558.401 398.728 558.603 398.368 558.786 397.869L559.067 397.102L555.437 387.233H557.073L559.783 395.057H559.886L562.596 387.233H564.232L560.065 398.483C559.877 398.99 559.645 399.41 559.368 399.742C559.091 400.079 558.769 400.328 558.403 400.49C558.04 400.652 557.631 400.733 557.175 400.733ZM571.49 397.051V383.96H575.914C576.941 383.96 577.78 384.146 578.432 384.516C579.088 384.883 579.574 385.379 579.89 386.006C580.205 386.632 580.363 387.331 580.363 388.102C580.363 388.874 580.205 389.575 579.89 390.205C579.578 390.836 579.097 391.339 578.445 391.714C577.793 392.085 576.958 392.27 575.939 392.27H572.769V390.864H575.888C576.591 390.864 577.156 390.742 577.582 390.499C578.008 390.257 578.317 389.928 578.509 389.515C578.705 389.097 578.803 388.627 578.803 388.102C578.803 387.578 578.705 387.11 578.509 386.696C578.317 386.283 578.006 385.959 577.576 385.725C577.145 385.486 576.574 385.367 575.863 385.367H573.076V397.051H571.49ZM586.595 397.256C585.708 397.256 584.931 397.045 584.262 396.623C583.597 396.201 583.077 395.611 582.702 394.852C582.331 394.094 582.146 393.208 582.146 392.193C582.146 391.171 582.331 390.278 582.702 389.515C583.077 388.752 583.597 388.16 584.262 387.738C584.931 387.316 585.708 387.105 586.595 387.105C587.481 387.105 588.257 387.316 588.922 387.738C589.591 388.16 590.11 388.752 590.481 389.515C590.856 390.278 591.044 391.171 591.044 392.193C591.044 393.208 590.856 394.094 590.481 394.852C590.11 395.611 589.591 396.201 588.922 396.623C588.257 397.045 587.481 397.256 586.595 397.256ZM586.595 395.901C587.268 395.901 587.822 395.728 588.257 395.383C588.691 395.038 589.013 394.584 589.222 394.021C589.431 393.459 589.535 392.85 589.535 392.193C589.535 391.537 589.431 390.926 589.222 390.359C589.013 389.792 588.691 389.334 588.257 388.985C587.822 388.635 587.268 388.46 586.595 388.46C585.922 388.46 585.368 388.635 584.933 388.985C584.498 389.334 584.176 389.792 583.968 390.359C583.759 390.926 583.654 391.537 583.654 392.193C583.654 392.85 583.759 393.459 583.968 394.021C584.176 394.584 584.498 395.038 584.933 395.383C585.368 395.728 585.922 395.901 586.595 395.901ZM597.335 397.256C596.449 397.256 595.671 397.045 595.002 396.623C594.337 396.201 593.817 395.611 593.442 394.852C593.072 394.094 592.886 393.208 592.886 392.193C592.886 391.171 593.072 390.278 593.442 389.515C593.817 388.752 594.337 388.16 595.002 387.738C595.671 387.316 596.449 387.105 597.335 387.105C598.221 387.105 598.997 387.316 599.662 387.738C600.331 388.16 600.851 388.752 601.221 389.515C601.596 390.278 601.784 391.171 601.784 392.193C601.784 393.208 601.596 394.094 601.221 394.852C600.851 395.611 600.331 396.201 599.662 396.623C598.997 397.045 598.221 397.256 597.335 397.256ZM597.335 395.901C598.008 395.901 598.562 395.728 598.997 395.383C599.432 395.038 599.753 394.584 599.962 394.021C600.171 393.459 600.275 392.85 600.275 392.193C600.275 391.537 600.171 390.926 599.962 390.359C599.753 389.792 599.432 389.334 598.997 388.985C598.562 388.635 598.008 388.46 597.335 388.46C596.662 388.46 596.108 388.635 595.673 388.985C595.238 389.334 594.917 389.792 594.708 390.359C594.499 390.926 594.395 391.537 594.395 392.193C594.395 392.85 594.499 393.459 594.708 394.021C594.917 394.584 595.238 395.038 595.673 395.383C596.108 395.728 596.662 395.901 597.335 395.901ZM605.595 383.96V397.051H604.087V383.96H605.595Z" fill="white"/>
<path d="M591.936 344.321V357.412H589.168V346.948H589.091L586.094 348.827V346.373L589.334 344.321H591.936ZM602.213 354.957V354.267C602.213 353.743 602.324 353.261 602.545 352.822C602.771 352.379 603.097 352.026 603.523 351.761C603.954 351.493 604.478 351.359 605.096 351.359C605.722 351.359 606.248 351.491 606.674 351.755C607.105 352.019 607.429 352.373 607.646 352.816C607.868 353.255 607.978 353.739 607.978 354.267V354.957C607.978 355.481 607.868 355.965 607.646 356.408C607.424 356.847 607.098 357.199 606.668 357.463C606.238 357.731 605.713 357.866 605.096 357.866C604.469 357.866 603.943 357.731 603.517 357.463C603.091 357.199 602.767 356.847 602.545 356.408C602.324 355.965 602.213 355.481 602.213 354.957ZM604.073 354.267V354.957C604.073 355.26 604.145 355.545 604.29 355.814C604.439 356.082 604.708 356.217 605.096 356.217C605.483 356.217 605.748 356.084 605.888 355.82C606.033 355.556 606.105 355.268 606.105 354.957V354.267C606.105 353.956 606.037 353.666 605.901 353.398C605.765 353.129 605.496 352.995 605.096 352.995C604.712 352.995 604.446 353.129 604.297 353.398C604.147 353.666 604.073 353.956 604.073 354.267ZM595.495 347.466V346.776C595.495 346.247 595.608 345.763 595.833 345.325C596.059 344.881 596.385 344.528 596.811 344.263C597.242 343.999 597.762 343.867 598.371 343.867C599.002 343.867 599.53 343.999 599.956 344.263C600.382 344.528 600.706 344.881 600.928 345.325C601.15 345.763 601.26 346.247 601.26 346.776V347.466C601.26 347.994 601.147 348.478 600.922 348.917C600.7 349.356 600.374 349.707 599.944 349.972C599.517 350.231 598.993 350.361 598.371 350.361C597.749 350.361 597.223 350.229 596.792 349.965C596.366 349.697 596.042 349.345 595.821 348.91C595.603 348.472 595.495 347.99 595.495 347.466ZM597.368 346.776V347.466C597.368 347.777 597.44 348.065 597.585 348.329C597.734 348.593 597.996 348.725 598.371 348.725C598.763 348.725 599.03 348.593 599.17 348.329C599.315 348.065 599.387 347.777 599.387 347.466V346.776C599.387 346.464 599.319 346.175 599.183 345.906C599.047 345.638 598.776 345.503 598.371 345.503C597.992 345.503 597.73 345.64 597.585 345.913C597.44 346.185 597.368 346.473 597.368 346.776ZM596.338 357.412L605.338 344.321H607.013L598.013 357.412H596.338Z" fill="white"/>
<path d="M9.20314 59.47C8.2486 59.47 7.39845 59.3059 6.65272 58.9778C5.91124 58.6454 5.3253 58.1895 4.8949 57.6099C4.46877 57.0261 4.24931 56.3528 4.23652 55.59H7.02345C7.0405 55.9096 7.1449 56.1909 7.33666 56.4338C7.53269 56.6724 7.79263 56.8578 8.11649 56.9899C8.44036 57.122 8.8047 57.188 9.20953 57.188C9.63141 57.188 10.0043 57.1135 10.3281 56.9643C10.652 56.8152 10.9056 56.6085 11.0888 56.3443C11.272 56.0801 11.3637 55.7754 11.3637 55.4302C11.3637 55.0808 11.2656 54.7718 11.0696 54.5034C10.8779 54.2306 10.6009 54.0176 10.2387 53.8642C9.8807 53.7108 9.45456 53.6341 8.96024 53.6341H7.73936V51.6014H8.96024C9.37786 51.6014 9.74647 51.5289 10.0661 51.3841C10.3899 51.2392 10.6414 51.0389 10.8203 50.7832C10.9993 50.5233 11.0888 50.2207 11.0888 49.8755C11.0888 49.5474 11.01 49.2598 10.8523 49.0126C10.6989 48.7612 10.4816 48.5652 10.2003 48.4245C9.92331 48.2839 9.59945 48.2136 9.22871 48.2136C8.85371 48.2136 8.51067 48.2818 8.19959 48.4181C7.88851 48.5502 7.63922 48.7399 7.45172 48.987C7.26422 49.2342 7.16408 49.524 7.1513 49.8564H4.4986C4.51138 49.1021 4.72658 48.4373 5.14419 47.862C5.56181 47.2868 6.12431 46.8372 6.83169 46.5133C7.54334 46.1852 8.34661 46.0211 9.24149 46.0211C10.1449 46.0211 10.9354 46.1852 11.6129 46.5133C12.2905 46.8414 12.8168 47.2846 13.1918 47.8429C13.571 48.3968 13.7585 49.019 13.7543 49.7093C13.7585 50.4423 13.5306 51.0538 13.0703 51.5439C12.6144 52.0339 12.0199 52.345 11.2869 52.4771V52.5794C12.25 52.7029 12.983 53.0375 13.4858 53.5829C13.9929 54.1241 14.2443 54.8017 14.2401 55.6156C14.2443 56.3613 14.0291 57.024 13.5945 57.6035C13.1641 58.1831 12.5696 58.639 11.8111 58.9714C11.0526 59.3038 10.1833 59.47 9.20314 59.47ZM23.3951 56.8365V56.1461C23.3951 55.622 23.5059 55.1404 23.7275 54.7015C23.9533 54.2583 24.2793 53.9047 24.7055 53.6404C25.1358 53.372 25.66 53.2377 26.2779 53.2377C26.9043 53.2377 27.4306 53.3699 27.8567 53.6341C28.2871 53.8983 28.611 54.252 28.8283 54.6951C29.0499 55.1341 29.1607 55.6177 29.1607 56.1461V56.8365C29.1607 57.3606 29.0499 57.8443 28.8283 58.2875C28.6067 58.7264 28.2807 59.0779 27.8503 59.3422C27.4199 59.6106 26.8958 59.7449 26.2779 59.7449C25.6515 59.7449 25.1252 59.6106 24.6991 59.3422C24.2729 59.0779 23.9491 58.7264 23.7275 58.2875C23.5059 57.8443 23.3951 57.3606 23.3951 56.8365ZM25.2552 56.1461V56.8365C25.2552 57.139 25.3276 57.4245 25.4725 57.693C25.6216 57.9615 25.8901 58.0957 26.2779 58.0957C26.6657 58.0957 26.9299 57.9636 27.0705 57.6994C27.2154 57.4352 27.2878 57.1475 27.2878 56.8365V56.1461C27.2878 55.835 27.2197 55.5453 27.0833 55.2768C26.9469 55.0083 26.6785 54.8741 26.2779 54.8741C25.8944 54.8741 25.628 55.0083 25.4789 55.2768C25.3297 55.5453 25.2552 55.835 25.2552 56.1461ZM16.677 49.345V48.6547C16.677 48.1262 16.79 47.6426 17.0158 47.2037C17.2417 46.7605 17.5677 46.4068 17.9938 46.1426C18.4242 45.8784 18.9441 45.7463 19.5535 45.7463C20.1841 45.7463 20.7126 45.8784 21.1387 46.1426C21.5648 46.4068 21.8887 46.7605 22.1103 47.2037C22.3319 47.6426 22.4427 48.1262 22.4427 48.6547V49.345C22.4427 49.8734 22.3297 50.3571 22.1039 50.796C21.8823 51.2349 21.5563 51.5865 21.1259 51.8507C20.6998 52.1106 20.1756 52.2406 19.5535 52.2406C18.9313 52.2406 18.405 52.1085 17.9746 51.8443C17.5485 51.5758 17.2246 51.2243 17.003 50.7896C16.7857 50.3507 16.677 49.8691 16.677 49.345ZM18.5499 48.6547V49.345C18.5499 49.6561 18.6224 49.9437 18.7672 50.2079C18.9164 50.4721 19.1785 50.6042 19.5535 50.6042C19.9455 50.6042 20.2118 50.4721 20.3525 50.2079C20.4974 49.9437 20.5698 49.6561 20.5698 49.345V48.6547C20.5698 48.3436 20.5016 48.0538 20.3653 47.7853C20.2289 47.5169 19.9583 47.3826 19.5535 47.3826C19.1742 47.3826 18.9121 47.519 18.7672 47.7917C18.6224 48.0645 18.5499 48.3521 18.5499 48.6547ZM17.5208 59.291L26.5208 46.2001H28.1955L19.1955 59.291H17.5208Z" fill="white"/>
<path d="M1.58523 4.90909H3.47727L7.92614 15.7756H8.07955L12.5284 4.90909H14.4205V18H12.9375V8.05398H12.8097L8.71875 18H7.28693L3.19602 8.05398H3.06818V18H1.58523V4.90909ZM20.2836 18.2301C19.6614 18.2301 19.0968 18.1129 18.5897 17.8786C18.0826 17.6399 17.6799 17.2969 17.3816 16.8494C17.0833 16.3977 16.9341 15.8523 16.9341 15.2131C16.9341 14.6506 17.0449 14.1946 17.2665 13.8452C17.4881 13.4915 17.7843 13.2145 18.155 13.0142C18.5257 12.8139 18.9348 12.6648 19.3823 12.5668C19.834 12.4645 20.2878 12.3835 20.7438 12.3239C21.3404 12.2472 21.824 12.1896 22.1948 12.1513C22.5698 12.1087 22.8425 12.0384 23.013 11.9403C23.1877 11.8423 23.275 11.6719 23.275 11.429V11.3778C23.275 10.7472 23.1025 10.2571 22.7573 9.90767C22.4164 9.55824 21.8986 9.38352 21.204 9.38352C20.4838 9.38352 19.9192 9.54119 19.5101 9.85653C19.101 10.1719 18.8134 10.5085 18.6472 10.8665L17.2154 10.3551C17.4711 9.75852 17.812 9.29403 18.2381 8.96165C18.6685 8.625 19.1373 8.39062 19.6444 8.25852C20.1557 8.12216 20.6586 8.05398 21.1529 8.05398C21.4682 8.05398 21.8304 8.09233 22.2395 8.16903C22.6529 8.24148 23.0513 8.39276 23.4348 8.62287C23.8226 8.85298 24.1444 9.20028 24.4 9.66477C24.6557 10.1293 24.7836 10.7514 24.7836 11.5312V18H23.275V16.6705H23.1983C23.0961 16.8835 22.9256 17.1115 22.687 17.3544C22.4483 17.5973 22.1309 17.804 21.7346 17.9744C21.3382 18.1449 20.8546 18.2301 20.2836 18.2301ZM20.5137 16.875C21.1103 16.875 21.6131 16.7578 22.0222 16.5234C22.4355 16.2891 22.7466 15.9865 22.9554 15.6158C23.1685 15.245 23.275 14.8551 23.275 14.446V13.0653C23.2111 13.142 23.0705 13.2124 22.8532 13.2763C22.6401 13.3359 22.3929 13.3892 22.1117 13.4361C21.8347 13.4787 21.5641 13.517 21.2999 13.5511C21.04 13.581 20.829 13.6065 20.6671 13.6278C20.275 13.679 19.9086 13.7621 19.5676 13.8771C19.231 13.9879 18.9583 14.1562 18.7495 14.3821C18.5449 14.6037 18.4426 14.9062 18.4426 15.2898C18.4426 15.8139 18.6365 16.2102 19.0243 16.4787C19.4164 16.7429 19.9128 16.875 20.5137 16.875ZM27.5369 18V8.18182H28.9943V9.66477H29.0966C29.2756 9.17898 29.5994 8.7848 30.0682 8.48224C30.5369 8.17969 31.0653 8.02841 31.6534 8.02841C31.7642 8.02841 31.9027 8.03054 32.0689 8.0348C32.2351 8.03906 32.3608 8.04545 32.446 8.05398V9.58807C32.3949 9.57528 32.2777 9.55611 32.0945 9.53054C31.9155 9.50071 31.7259 9.4858 31.5256 9.4858C31.0483 9.4858 30.6222 9.58594 30.2472 9.78622C29.8764 9.98224 29.5824 10.255 29.3651 10.6044C29.152 10.9496 29.0455 11.3437 29.0455 11.7869V18H27.5369ZM35.6404 14.4205L35.6149 12.554H35.9217L40.2172 8.18182H42.0836L37.5069 12.8097H37.3791L35.6404 14.4205ZM34.2342 18V4.90909H35.7427V18H34.2342ZM40.4728 18L36.6376 13.142L37.7115 12.0938L42.3904 18H40.4728ZM47.7374 18.2045C46.7914 18.2045 45.9753 17.9957 45.2892 17.5781C44.6074 17.1562 44.0811 16.5682 43.7104 15.8139C43.3439 15.0554 43.1607 14.1733 43.1607 13.1676C43.1607 12.1619 43.3439 11.2756 43.7104 10.5085C44.0811 9.73722 44.5968 9.13636 45.2573 8.70597C45.9221 8.27131 46.6976 8.05398 47.584 8.05398C48.0953 8.05398 48.6003 8.1392 49.0989 8.30966C49.5975 8.48011 50.0513 8.7571 50.4604 9.14062C50.8695 9.51989 51.1955 10.0227 51.4384 10.6491C51.6813 11.2756 51.8027 12.0469 51.8027 12.9631V13.6023H44.2346V12.2983H50.2686C50.2686 11.7443 50.1578 11.25 49.9363 10.8153C49.7189 10.3807 49.4078 10.0376 49.003 9.78622C48.6025 9.5348 48.1294 9.40909 47.584 9.40909C46.9831 9.40909 46.4632 9.55824 46.0243 9.85653C45.5897 10.1506 45.2551 10.5341 45.0208 11.0071C44.7864 11.4801 44.6692 11.9872 44.6692 12.5284V13.3977C44.6692 14.1392 44.7971 14.7678 45.0527 15.2834C45.3127 15.7947 45.6728 16.1847 46.133 16.4531C46.5932 16.7173 47.128 16.8494 47.7374 16.8494C48.1337 16.8494 48.4917 16.794 48.8113 16.6832C49.1351 16.5682 49.4142 16.3977 49.6486 16.1719C49.883 15.9418 50.0641 15.6562 50.1919 15.3153L51.6493 15.7244C51.4959 16.2188 51.2381 16.6534 50.8759 17.0284C50.5137 17.3991 50.0662 17.6889 49.5336 17.8977C49.0009 18.1023 48.4022 18.2045 47.7374 18.2045ZM58.3674 8.18182V9.46023H53.2793V8.18182H58.3674ZM54.7623 5.82955H56.2708V15.1875C56.2708 15.6136 56.3326 15.9332 56.4561 16.1463C56.584 16.3551 56.7459 16.4957 56.9419 16.5682C57.1422 16.6364 57.3532 16.6705 57.5748 16.6705C57.7409 16.6705 57.8773 16.6619 57.9838 16.6449C58.0904 16.6236 58.1756 16.6065 58.2395 16.5938L58.5463 17.9489C58.4441 17.9872 58.3013 18.0256 58.1181 18.0639C57.9348 18.1065 57.7026 18.1278 57.4213 18.1278C56.9952 18.1278 56.5776 18.0362 56.1685 17.853C55.7637 17.6697 55.427 17.3906 55.1586 17.0156C54.8944 16.6406 54.7623 16.1676 54.7623 15.5966V5.82955ZM60.6365 18V8.18182H62.1451V18H60.6365ZM61.4036 6.54545C61.1096 6.54545 60.856 6.44531 60.6429 6.24503C60.4341 6.04474 60.3297 5.80398 60.3297 5.52273C60.3297 5.24148 60.4341 5.00071 60.6429 4.80043C60.856 4.60014 61.1096 4.5 61.4036 4.5C61.6976 4.5 61.949 4.60014 62.1578 4.80043C62.3709 5.00071 62.4775 5.24148 62.4775 5.52273C62.4775 5.80398 62.3709 6.04474 62.1578 6.24503C61.949 6.44531 61.6976 6.54545 61.4036 6.54545ZM66.4165 12.0938V18H64.908V8.18182H66.3654V9.71591H66.4933C66.7234 9.21733 67.0728 8.81676 67.5415 8.5142C68.0103 8.20739 68.6154 8.05398 69.3569 8.05398C70.0217 8.05398 70.6033 8.19034 71.1019 8.46307C71.6005 8.73153 71.9883 9.14062 72.2653 9.69034C72.5423 10.2358 72.6808 10.9261 72.6808 11.7614V18H71.1722V11.8636C71.1722 11.0923 70.9719 10.4915 70.5714 10.0611C70.1708 9.62642 69.6211 9.40909 68.9222 9.40909C68.4407 9.40909 68.0103 9.51349 67.631 9.7223C67.256 9.93111 66.9599 10.2358 66.7425 10.6364C66.5252 11.0369 66.4165 11.5227 66.4165 12.0938ZM79.4004 21.8864C78.6717 21.8864 78.0453 21.7926 77.5211 21.6051C76.997 21.4219 76.5602 21.179 76.2108 20.8764C75.8656 20.5781 75.5907 20.2585 75.3862 19.9176L76.5879 19.0739C76.7243 19.2528 76.8968 19.4574 77.1056 19.6875C77.3145 19.9219 77.6 20.1243 77.9622 20.2947C78.3287 20.4695 78.8081 20.5568 79.4004 20.5568C80.193 20.5568 80.8471 20.3651 81.3627 19.9815C81.8784 19.598 82.1362 18.9972 82.1362 18.179V16.1847H82.0083C81.8976 16.3636 81.7399 16.5852 81.5353 16.8494C81.335 17.1094 81.0453 17.3416 80.666 17.5462C80.291 17.7464 79.7839 17.8466 79.1447 17.8466C78.3521 17.8466 77.6404 17.6591 77.0098 17.2841C76.3833 16.9091 75.8869 16.3636 75.5204 15.6477C75.1582 14.9318 74.9771 14.0625 74.9771 13.0398C74.9771 12.0341 75.1539 11.1584 75.5076 10.4126C75.8613 9.66264 76.3535 9.0831 76.9842 8.67401C77.6149 8.26065 78.3436 8.05398 79.1703 8.05398C79.8095 8.05398 80.3166 8.16051 80.6916 8.37358C81.0708 8.58239 81.3606 8.82102 81.5609 9.08949C81.7654 9.35369 81.9231 9.57102 82.0339 9.74148H82.1873V8.18182H83.6447V18.2812C83.6447 19.125 83.4529 19.8111 83.0694 20.3395C82.6902 20.8722 82.1788 21.2621 81.5353 21.5092C80.8961 21.7607 80.1845 21.8864 79.4004 21.8864ZM79.3493 16.4915C79.9544 16.4915 80.4657 16.353 80.8833 16.076C81.301 15.799 81.6184 15.4006 81.8358 14.8807C82.0531 14.3608 82.1618 13.7386 82.1618 13.0142C82.1618 12.3068 82.0552 11.6825 81.8422 11.1413C81.6291 10.6001 81.3137 10.1761 80.8961 9.86932C80.4785 9.5625 79.9629 9.40909 79.3493 9.40909C78.71 9.40909 78.1774 9.57102 77.7512 9.89489C77.3294 10.2187 77.0119 10.6534 76.7988 11.1989C76.59 11.7443 76.4856 12.3494 76.4856 13.0142C76.4856 13.696 76.5922 14.299 76.8052 14.8232C77.0225 15.343 77.3422 15.7521 77.764 16.0504C78.1902 16.3445 78.7186 16.4915 79.3493 16.4915ZM94.051 18L90.4714 4.90909H92.0822L94.818 15.571H94.9458L97.7328 4.90909H99.5226L102.309 15.571H102.437L105.173 4.90909H106.784L103.204 18H101.568L98.6788 7.56818H98.5765L95.6873 18H94.051ZM110.53 18.2301C109.907 18.2301 109.343 18.1129 108.836 17.8786C108.329 17.6399 107.926 17.2969 107.628 16.8494C107.329 16.3977 107.18 15.8523 107.18 15.2131C107.18 14.6506 107.291 14.1946 107.513 13.8452C107.734 13.4915 108.03 13.2145 108.401 13.0142C108.772 12.8139 109.181 12.6648 109.628 12.5668C110.08 12.4645 110.534 12.3835 110.99 12.3239C111.586 12.2472 112.07 12.1896 112.441 12.1513C112.816 12.1087 113.089 12.0384 113.259 11.9403C113.434 11.8423 113.521 11.6719 113.521 11.429V11.3778C113.521 10.7472 113.349 10.2571 113.003 9.90767C112.662 9.55824 112.145 9.38352 111.45 9.38352C110.73 9.38352 110.165 9.54119 109.756 9.85653C109.347 10.1719 109.059 10.5085 108.893 10.8665L107.461 10.3551C107.717 9.75852 108.058 9.29403 108.484 8.96165C108.915 8.625 109.383 8.39062 109.89 8.25852C110.402 8.12216 110.905 8.05398 111.399 8.05398C111.714 8.05398 112.077 8.09233 112.486 8.16903C112.899 8.24148 113.297 8.39276 113.681 8.62287C114.069 8.85298 114.39 9.20028 114.646 9.66477C114.902 10.1293 115.03 10.7514 115.03 11.5312V18H113.521V16.6705H113.444C113.342 16.8835 113.172 17.1115 112.933 17.3544C112.694 17.5973 112.377 17.804 111.981 17.9744C111.584 18.1449 111.101 18.2301 110.53 18.2301ZM110.76 16.875C111.356 16.875 111.859 16.7578 112.268 16.5234C112.682 16.2891 112.993 15.9865 113.202 15.6158C113.415 15.245 113.521 14.8551 113.521 14.446V13.0653C113.457 13.142 113.317 13.2124 113.099 13.2763C112.886 13.3359 112.639 13.3892 112.358 13.4361C112.081 13.4787 111.81 13.517 111.546 13.5511C111.286 13.581 111.075 13.6065 110.913 13.6278C110.521 13.679 110.155 13.7621 109.814 13.8771C109.477 13.9879 109.204 14.1562 108.996 14.3821C108.791 14.6037 108.689 14.9062 108.689 15.2898C108.689 15.8139 108.883 16.2102 109.27 16.4787C109.662 16.7429 110.159 16.875 110.76 16.875ZM119.292 4.90909V18H117.783V4.90909H119.292ZM123.563 4.90909V18H122.055V4.90909H123.563ZM130.442 18.2045C129.496 18.2045 128.68 17.9957 127.994 17.5781C127.312 17.1562 126.786 16.5682 126.415 15.8139C126.049 15.0554 125.866 14.1733 125.866 13.1676C125.866 12.1619 126.049 11.2756 126.415 10.5085C126.786 9.73722 127.302 9.13636 127.962 8.70597C128.627 8.27131 129.403 8.05398 130.289 8.05398C130.8 8.05398 131.305 8.1392 131.804 8.30966C132.303 8.48011 132.756 8.7571 133.165 9.14062C133.575 9.51989 133.901 10.0227 134.143 10.6491C134.386 11.2756 134.508 12.0469 134.508 12.9631V13.6023H126.94V12.2983H132.974C132.974 11.7443 132.863 11.25 132.641 10.8153C132.424 10.3807 132.113 10.0376 131.708 9.78622C131.308 9.5348 130.835 9.40909 130.289 9.40909C129.688 9.40909 129.168 9.55824 128.729 9.85653C128.295 10.1506 127.96 10.5341 127.726 11.0071C127.491 11.4801 127.374 11.9872 127.374 12.5284V13.3977C127.374 14.1392 127.502 14.7678 127.758 15.2834C128.018 15.7947 128.378 16.1847 128.838 16.4531C129.298 16.7173 129.833 16.8494 130.442 16.8494C130.839 16.8494 131.197 16.794 131.516 16.6832C131.84 16.5682 132.119 16.3977 132.354 16.1719C132.588 15.9418 132.769 15.6562 132.897 15.3153L134.354 15.7244C134.201 16.2188 133.943 16.6534 133.581 17.0284C133.219 17.3991 132.771 17.6889 132.239 17.8977C131.706 18.1023 131.107 18.2045 130.442 18.2045ZM141.072 8.18182V9.46023H135.984V8.18182H141.072ZM137.467 5.82955H138.976V15.1875C138.976 15.6136 139.038 15.9332 139.161 16.1463C139.289 16.3551 139.451 16.4957 139.647 16.5682C139.847 16.6364 140.058 16.6705 140.28 16.6705C140.446 16.6705 140.582 16.6619 140.689 16.6449C140.795 16.6236 140.881 16.6065 140.945 16.5938L141.251 17.9489C141.149 17.9872 141.006 18.0256 140.823 18.0639C140.64 18.1065 140.408 18.1278 140.126 18.1278C139.7 18.1278 139.283 18.0362 138.874 17.853C138.469 17.6697 138.132 17.3906 137.864 17.0156C137.599 16.6406 137.467 16.1676 137.467 15.5966V5.82955Z" fill="white"/>
<path d="M295.711 197.398V193.921L311.051 169.648H313.574V175.035H311.87L300.279 193.376V193.648H320.938V197.398H295.711ZM312.142 204.557V196.341V194.722V169.648H316.165V204.557H312.142ZM345.121 198.012V196.171C345.121 194.898 345.382 193.734 345.905 192.677C346.439 191.609 347.212 190.756 348.223 190.12C349.246 189.472 350.485 189.148 351.939 189.148C353.417 189.148 354.655 189.472 355.655 190.12C356.655 190.756 357.411 191.609 357.922 192.677C358.434 193.734 358.689 194.898 358.689 196.171V198.012C358.689 199.285 358.428 200.455 357.905 201.523C357.394 202.58 356.632 203.432 355.621 204.08C354.621 204.716 353.394 205.035 351.939 205.035C350.462 205.035 349.218 204.716 348.206 204.08C347.195 203.432 346.428 202.58 345.905 201.523C345.382 200.455 345.121 199.285 345.121 198.012ZM348.598 196.171V198.012C348.598 199.069 348.848 200.018 349.348 200.859C349.848 201.688 350.712 202.103 351.939 202.103C353.132 202.103 353.973 201.688 354.462 200.859C354.962 200.018 355.212 199.069 355.212 198.012V196.171C355.212 195.114 354.973 194.171 354.496 193.341C354.019 192.501 353.167 192.08 351.939 192.08C350.746 192.08 349.888 192.501 349.365 193.341C348.854 194.171 348.598 195.114 348.598 196.171ZM327.735 178.035V176.194C327.735 174.921 327.996 173.756 328.519 172.699C329.053 171.631 329.826 170.779 330.837 170.143C331.86 169.495 333.098 169.171 334.553 169.171C336.03 169.171 337.269 169.495 338.269 170.143C339.269 170.779 340.024 171.631 340.536 172.699C341.047 173.756 341.303 174.921 341.303 176.194V178.035C341.303 179.307 341.042 180.478 340.519 181.546C340.007 182.603 339.246 183.455 338.235 184.103C337.235 184.739 336.007 185.057 334.553 185.057C333.076 185.057 331.831 184.739 330.82 184.103C329.809 183.455 329.042 182.603 328.519 181.546C327.996 180.478 327.735 179.307 327.735 178.035ZM331.212 176.194V178.035C331.212 179.091 331.462 180.04 331.962 180.881C332.462 181.711 333.326 182.126 334.553 182.126C335.746 182.126 336.587 181.711 337.076 180.881C337.576 180.04 337.826 179.091 337.826 178.035V176.194C337.826 175.137 337.587 174.194 337.11 173.364C336.632 172.523 335.78 172.103 334.553 172.103C333.36 172.103 332.502 172.523 331.979 173.364C331.468 174.194 331.212 175.137 331.212 176.194ZM329.03 204.557L353.03 169.648H356.917L332.917 204.557H329.03Z" fill="white"/>
<path d="M276.036 236.421V234.858H286.945V236.421H282.371V249.404H280.61V236.421H276.036ZM301.331 242.131C301.331 243.665 301.054 244.991 300.5 246.108C299.946 247.226 299.186 248.087 298.22 248.693C297.254 249.3 296.151 249.603 294.911 249.603C293.67 249.603 292.567 249.3 291.601 248.693C290.635 248.087 289.875 247.226 289.321 246.108C288.767 244.991 288.49 243.665 288.49 242.131C288.49 240.597 288.767 239.271 289.321 238.154C289.875 237.036 290.635 236.175 291.601 235.568C292.567 234.962 293.67 234.659 294.911 234.659C296.151 234.659 297.254 234.962 298.22 235.568C299.186 236.175 299.946 237.036 300.5 238.154C301.054 239.271 301.331 240.597 301.331 242.131ZM299.626 242.131C299.626 240.871 299.416 239.809 298.994 238.942C298.578 238.076 298.012 237.42 297.297 236.975C296.587 236.53 295.791 236.307 294.911 236.307C294.03 236.307 293.232 236.53 292.517 236.975C291.807 237.42 291.241 238.076 290.82 238.942C290.403 239.809 290.195 240.871 290.195 242.131C290.195 243.39 290.403 244.453 290.82 245.32C291.241 246.186 291.807 246.842 292.517 247.287C293.232 247.732 294.03 247.955 294.911 247.955C295.791 247.955 296.587 247.732 297.297 247.287C298.012 246.842 298.578 246.186 298.994 245.32C299.416 244.453 299.626 243.39 299.626 242.131ZM302.892 236.421V234.858H313.801V236.421H309.227V249.404H307.466V236.421H302.892ZM315.417 249.404H313.57L318.911 234.858H320.729L326.07 249.404H324.223L319.877 237.159H319.763L315.417 249.404ZM316.098 243.722H323.542V245.284H316.098V243.722ZM328.336 249.404V234.858H330.097V247.841H336.858V249.404H328.336ZM344.415 236.421V234.858H355.324V236.421H350.75V249.404H348.989V236.421H344.415ZM356.94 249.404H355.093L360.434 234.858H362.252L367.593 249.404H365.747L361.4 237.159H361.287L356.94 249.404ZM357.622 243.722H365.065V245.284H357.622V243.722ZM370.711 234.858L374.461 240.909H374.575L378.325 234.858H380.399L375.825 242.131L380.399 249.404H378.325L374.575 243.466H374.461L370.711 249.404H368.637L373.325 242.131L368.637 234.858H370.711Z" fill="white" fill-opacity="0.8"/>
<path d="M328.263 394.742C377.434 394.742 424.59 375.209 459.358 340.44C494.127 305.672 513.66 258.515 513.66 209.345C513.66 160.175 494.127 113.019 459.358 78.2501C424.59 43.4815 377.434 23.9487 328.263 23.9487L328.263 61.028C367.6 61.028 405.325 76.6543 433.139 104.469C460.954 132.284 476.581 170.009 476.581 209.345C476.581 248.681 460.954 286.406 433.139 314.221C405.325 342.036 367.599 357.662 328.263 357.662L328.263 394.742Z" fill="#F43064"/>
<path d="M494.951 201.822C505.179 201.361 513.192 192.669 511.712 182.537C506.671 148.04 491.979 115.526 469.156 88.8411C442.3 57.4419 405.725 35.9133 365.238 27.6731C324.75 19.433 282.67 24.9536 245.679 43.3584C208.687 61.7632 178.903 91.9976 161.055 129.262C143.208 166.526 138.32 208.684 147.167 249.043C156.014 289.402 178.089 325.649 209.888 352.031C241.687 378.412 281.387 393.415 322.686 394.658C357.784 395.714 392.327 386.781 422.365 369.085C431.187 363.888 432.937 352.196 426.885 343.937V343.937C420.833 335.678 409.276 334.004 400.327 338.979C377.062 351.912 350.634 358.403 323.801 357.595C290.762 356.601 259.002 344.598 233.563 323.494C208.124 302.389 190.464 273.391 183.386 241.103C176.308 208.816 180.219 175.089 194.497 145.278C208.775 115.467 232.602 91.2796 262.196 76.5558C291.789 61.8319 325.453 57.4154 357.843 64.0076C390.233 70.5997 419.493 87.8225 440.977 112.942C458.426 133.343 469.934 158.003 474.44 184.237C476.173 194.329 484.722 202.284 494.951 201.822V201.822Z" fill="url(#paint0_linear_20_2)"/>
<path d="M328.263 376.202C328.263 386.441 336.584 394.838 346.772 393.816C374.024 391.081 400.412 382.333 423.998 368.112C447.583 353.89 467.636 334.634 482.772 311.809C488.431 303.276 484.889 291.998 475.833 287.219C466.778 282.44 455.653 285.991 449.783 294.381C437.941 311.303 422.654 325.623 404.851 336.358C387.047 347.094 367.248 353.93 346.755 356.505C336.596 357.782 328.263 365.963 328.263 376.202Z" fill="#F43064"/>
<circle opacity="0.2" cx="462.046" cy="332.392" r="12.8002" fill="#E84570" fill-opacity="0.8"/>
<circle cx="462.046" cy="332.392" r="6.51947" fill="#E84570" stroke="white"/>
<circle opacity="0.2" cx="196.132" cy="80.5174" r="12.8002" fill="#1F96FA"/>
<circle cx="196.132" cy="80.5174" r="6.51947" fill="#1F96FA" stroke="white"/>
<path d="M466.588 336.934L509.5 372.445H606.977" stroke="white"/>
<path d="M191.59 75.9754L154.053 30.5553H3.30328" stroke="white"/>
<defs>
<linearGradient id="paint0_linear_20_2" x1="442.773" y1="63.4818" x2="179.673" y2="326.581" gradientUnits="userSpaceOnUse">
<stop stop-color="#18C8FF"/>
<stop offset="1" stop-color="#933FFE"/>
</linearGradient>
</defs>
</svg>
