<svg width="115" height="102" viewBox="0 0 115 102" fill="none" xmlns="http://www.w3.org/2000/svg">
<g clip-path="url(#clip0_1_86)">
<path fill-rule="evenodd" clip-rule="evenodd" d="M12.4216 0.32194C6.80183 0.475345 1.88528 0.626723 1.4958 0.658295C0.663955 0.725485 0.745299 0.898321 5.79929 9.82251C6.42958 10.9356 7.34077 12.5749 7.82401 13.4654C10.485 18.3687 10.9843 19.2539 11.819 20.5487C12.6877 21.8958 13.0267 22.5142 14.7056 25.8106C15.1023 26.5898 15.624 27.4394 15.8648 27.6988C16.106 27.9579 16.5464 28.7775 16.8441 29.5202C17.1414 30.2626 17.4948 30.9612 17.6291 31.0725C17.8342 31.2425 24.9931 43.8986 27.3868 48.3231C27.7939 49.0755 28.2571 49.6916 28.4162 49.6916C28.5749 49.6916 29.9545 47.4799 31.4824 44.7765C33.0098 42.0731 34.7104 39.086 35.2613 38.1376C36.6545 35.7402 40.0052 29.9278 40.9236 28.3145C41.3439 27.577 41.9514 26.5667 42.2735 26.0701C42.8048 25.2508 42.7728 25.0359 41.9333 23.7682C41.424 22.9991 39.5792 19.8622 37.8338 16.797C36.0884 13.7321 34.2552 10.5446 33.7599 9.71363C33.2646 8.88306 32.4921 7.47489 32.0433 6.58442C31.5945 5.69394 30.5535 3.87251 29.7301 2.5368L28.2327 0.108226L25.4358 0.0758441C23.898 0.0580345 18.0414 0.16894 12.4216 0.32194ZM67.1167 0.212251L57.5 0.331655L56.0976 2.82701C55.3262 4.19956 54.2251 6.15294 53.6505 7.16808C46.234 20.2658 44.0246 24.2737 44.1504 24.4012C44.2329 24.4842 56.9378 24.6821 72.3839 24.8404L100.467 25.1286L101.623 23.1424C102.951 20.8608 103.049 20.6896 106.719 14.234C108.225 11.5848 110.608 7.41418 112.014 4.96537C113.421 2.51656 114.578 0.376178 114.585 0.209416C114.598 -0.0710838 89.8591 -0.0694632 67.1167 0.212251ZM71.0924 26.814C70.7082 27.4066 70.1071 28.4254 69.7569 29.0782C69.4067 29.7311 67.4072 33.2898 65.3136 36.9861C63.2199 40.6824 61.1319 44.3702 60.6735 45.1813C60.2151 45.9924 59.4181 47.3844 58.9024 48.2749C57.7412 50.2801 56.9979 51.6024 53.6321 57.6508C52.1659 60.2858 49.5297 65.0138 47.7743 68.1576C45.421 72.3716 44.7755 73.8227 45.318 73.6794C45.7227 73.5725 46.2621 73.2313 46.5169 72.9217C46.7713 72.6116 47.156 72.3582 47.372 72.3582C47.5876 72.3582 49.8643 71.1516 52.4316 69.6767C59.2591 65.7541 59.1957 65.7902 63.0541 63.6247C66.4363 61.7263 67.6741 61.02 70.9678 59.1084C71.7636 58.6465 75.1896 56.6757 78.5811 54.7292C81.9726 52.7827 84.9966 50.9589 85.3011 50.6767C85.8773 50.1425 85.8361 50.0429 83.0609 45.2392C82.6105 44.46 80.9808 41.6368 79.4386 38.9654C77.8967 36.2939 75.545 32.2249 74.2131 29.9226L71.7909 25.7369L71.0924 26.814ZM54.3726 76.0213C48.9059 76.1832 44.3287 76.4212 44.2005 76.5503C44.0726 76.6795 44.2598 77.2348 44.616 77.7841C45.336 78.8943 46.1431 80.3268 48.3365 84.3873C49.1519 85.8971 50.8953 89.0445 52.2108 91.382C53.5263 93.7195 55.1563 96.6792 55.8331 97.9594C56.5099 99.2397 57.1634 100.287 57.2856 100.287C57.4074 100.287 58.5518 98.4196 59.828 96.138C61.1043 93.8563 62.4775 91.4427 62.8794 90.7749C63.2812 90.107 64.9213 87.2838 66.5237 84.5011C68.1261 81.7183 69.8595 78.713 70.3756 77.8225C70.8921 76.932 71.3164 76.0671 71.3192 75.8999C71.3244 75.5672 69.198 75.5826 54.3726 76.0213ZM40.1454 122.987C37.3001 124.124 35.662 126.33 35.662 129.026C35.662 132.412 37.9821 134.707 42.8746 136.162C47.6168 137.573 49.2392 138.959 48.4871 140.958C47.3952 143.859 41.6797 143.817 39.0255 140.89C37.7825 139.52 37.72 139.499 36.5768 140.097C34.4647 141.2 34.3493 141.657 35.7498 143.374C38.9846 147.338 46.565 148.128 50.7887 144.942C52.5446 143.617 53.2927 142.016 53.2927 139.583C53.2927 136.132 51.5328 134.707 44.0137 132.07C41.4385 131.167 40.8663 130.799 40.4488 129.781C40.0148 128.723 40.0533 128.43 40.7501 127.481C42.3637 125.285 45.5773 125.389 47.8773 127.713L48.8934 128.739L50.4922 128.011C52.3791 127.152 52.4753 126.598 50.9887 125.153C48.2363 122.479 43.6912 121.571 40.1454 122.987ZM74.3257 122.936C71.5685 123.848 69.2793 125.837 67.493 128.874C66.4456 130.653 66.3314 131.203 66.3237 134.489C66.3137 138.895 67.2377 141.102 70.2289 143.819C76.0683 149.122 85.6057 147.323 89.242 140.232C90.156 138.45 90.3215 137.612 90.3379 134.692C90.3607 130.584 89.4271 128.322 86.6367 125.724C83.1462 122.473 78.7421 121.477 74.3257 122.936ZM94.7688 122.595C94.6494 122.909 94.5997 128.355 94.6582 134.697L94.7648 146.227L96.8685 146.35L98.9721 146.472V139.131C98.9721 135.091 99.13 131.851 99.3235 131.926C99.5167 132 102.974 135.294 107.006 139.245C111.038 143.196 114.486 146.43 114.669 146.43C114.851 146.43 115 141.148 115 134.692V122.953H112.805H110.61L110.501 130.307L110.392 137.66L102.689 129.842C97.5613 124.637 94.9135 122.214 94.7688 122.595ZM0 123.18C0 123.327 2.16376 127.9 4.80836 133.341C7.45296 138.783 9.61753 143.362 9.61873 143.517C9.61993 143.672 10.0479 144.511 10.57 145.383L11.5188 146.966L17.3818 135.061L23.2444 123.156L21.1816 123.032C20.0473 122.963 18.9758 123.054 18.8003 123.234C18.4713 123.571 17.1711 126.215 13.8116 133.376C12.741 135.658 11.7577 137.525 11.6266 137.525C11.4952 137.525 9.99378 134.565 8.29042 130.948C6.58706 127.33 5.04277 124.097 4.85925 123.763C4.52467 123.155 0 122.612 0 123.18ZM26.1395 134.57L26.2456 146.227H28.4495H30.6533V134.692V123.156L28.3433 123.034L26.0329 122.913L26.1395 134.57ZM57.2997 134.692V146.43H59.5035H61.7073V134.692V122.953H59.5035H57.2997V134.692ZM81.9117 127.489C84.4308 128.824 86.3838 132.556 86.0088 135.319C85.6894 137.673 84.7109 139.525 83.0248 140.965C81.6993 142.097 81.3823 142.18 78.3435 142.18C75.3442 142.18 74.9736 142.087 73.7046 141.021C70.6264 138.434 69.7197 134.583 71.3922 131.2C72.4801 128.999 73.6232 127.902 75.5935 127.167C77.2467 126.55 80.4479 126.713 81.9117 127.489Z" fill="white"/>
</g>
<defs>
<clipPath id="clip0_1_86">
<rect width="115" height="102" fill="white"/>
</clipPath>
</defs>
</svg>
