<svg width="25" height="25" viewBox="0 0 30 30" fill="none" xmlns="http://www.w3.org/2000/svg">
<g clip-path="url(#clip0_11_202)">
<path d="M15 0C6.71566 0 0 6.71566 0 15C0 23.2843 6.71566 30 15 30C23.2843 30 30 23.2843 30 15C30 6.71566 23.2843 0 15 0Z" fill="#40B3E0"/>
<path d="M22.2991 8.62853L19.6198 22.1366C19.6198 22.1366 19.2452 23.0734 18.2147 22.6238L12.0321 17.8838L9.78402 16.7972L5.99957 15.5231C5.99957 15.5231 5.41879 15.3171 5.36254 14.8675C5.30629 14.4178 6.01832 14.1743 6.01832 14.1743L21.0624 8.27275C21.0624 8.27275 22.2989 7.72947 22.2989 8.62877" fill="white"/>
<path d="M11.5582 21.9847C11.5582 21.9847 11.3777 21.9678 11.1527 21.2558C10.9281 20.5438 9.78516 16.7969 9.78516 16.7969L18.8716 11.0266C18.8716 11.0266 19.3963 10.7081 19.3775 11.0266C19.3775 11.0266 19.4712 11.0828 19.19 11.3451C18.9091 11.6075 12.0521 17.7712 12.0521 17.7712" fill="#D2E5F1"/>
<path d="M14.4025 19.7009L11.9571 21.9305C11.9571 21.9305 11.7659 22.0756 11.5568 21.9847L12.0251 17.8433" fill="#B5CFE4"/>
</g>
<defs>
<clipPath id="clip0_11_202">
<rect width="30" height="30" fill="white"/>
</clipPath>
</defs>
</svg>
